#!OML:ASF I:\Actors\actors\Patient Classification 2\Patient 1\Session 1\actor1.ASF
:FULLY-SPECIFIED
:DEGREES
712
root -0.95618 17.5713 7.25415 -8.71489 -4.69648 -4.32802
lowerback 2.3004 1.11017 -2.17159
upperback -3.89767 1.45349 1.63739
thorax -5.42638 0.847525 2.81569
lowerneck -36.1169 -4.22817 -5.15511
upperneck 28.0166 -4.46583 3.38307
head 16.1853 -1.86931 1.27291
rclavicle 2.21645e-014 2.38542e-015
rhumerus 30.4319 -38.8055 5.51838
rradius 40.6248
rwrist -4.3228
rhand -47.6042 -44.5163
rfingers 7.12502
rthumb -20.2881 -73.4767
lclavicle 2.21645e-014 2.38542e-015
lhumerus 51.8633 35.6549 25.1656
lradius 36.3446
lwrist -0.168353
lhand -34.5636 -45.8827
lfingers 7.12502
lthumb -7.72362 -16.0438
rfemur 30.613 3.70499 20.5695
rtibia -12.9463
rfoot -16.5342 -12.2314
rtoes 3.4399
lfemur 36.9329 -7.83685 -16.3437
ltibia -24.6375
lfoot -7.38496 22.9643
ltoes -8.50256
713
root -0.964332 17.5722 7.25562 -8.62357 -4.58215 -4.26838
lowerback 2.251 1.11729 -2.12006
upperback -4.18292 1.46226 1.54217
thorax -5.69465 0.854142 2.68593
lowerneck -36.0156 -4.23795 -5.15163
upperneck 28.0427 -4.4713 3.33352
head 16.1762 -1.88074 1.24998
rclavicle -1.89839e-014 4.77083e-015
rhumerus 29.8006 -38.226 5.96207
rradius 40.895
rwrist -4.67001
rhand -47.7854 -44.6302
rfingers 7.12502
rthumb -20.4622 -73.572
lclavicle -1.89839e-014 4.77083e-015
lhumerus 52.996 35.4213 26.7671
lradius 36.0272
lwrist -1.51059
lhand -34.741 -46.5062
lfingers 7.12502
lthumb -7.89481 -16.6737
rfemur 30.5015 3.63775 20.5124
rtibia -12.8778
rfoot -16.6844 -12.146
rtoes 3.6813
lfemur 36.7909 -7.8034 -16.3373
ltibia -24.615
lfoot -7.29231 22.8162
ltoes -9.02976
714
root -0.971399 17.574 7.25259 -8.56743 -4.54544 -4.22455
lowerback 1.53556 1.06624 -2.36628
upperback -3.90364 1.40067 1.69162
thorax -4.99918 0.824911 2.99761
lowerneck -36.294 -4.15376 -5.12116
upperneck 27.7374 -4.28294 3.19876
head 16.0693 -1.81866 1.22664
rclavicle 2.98177e-015 3.97569e-015
rhumerus 30.1264 -38.6432 5.71443
rradius 40.8466
rwrist -4.59305
rhand -47.9422 -45.2579
rfingers 7.12502
rthumb -20.6128 -74.1835
lclavicle 2.98177e-015 3.97569e-015
lhumerus 53.9725 35.9659 28.2785
lradius 35.6506
lwrist -2.79694
lhand -34.4663 -46.9853
lfingers 7.12502
lthumb -7.6297 -17.1429
rfemur 30.429 3.5787 20.4534
rtibia -12.871
rfoot -16.6714 -12.0844
rtoes 3.8339
lfemur 36.6941 -7.80751 -16.343
ltibia -24.5925
lfoot -7.32889 22.7762
ltoes -9.04161
715
root -0.977822 17.575 7.24254 -8.61608 -4.51842 -4.17195
lowerback 2.01784 1.14424 -2.1183
upperback -4.32718 1.49849 1.47036
thorax -5.71311 0.872154 2.61045
lowerneck -36.2138 -4.19818 -5.11739
upperneck 27.9157 -4.42052 3.34963
head 16.1512 -1.85077 1.26145
rclavicle -9.74045e-015 -1.78906e-014
rhumerus 29.642 -37.9497 5.8521
rradius 40.8837
rwrist -5.01996
rhand -47.8771 -45.1654
rfingers 7.12502
rthumb -20.5503 -74.0977
lclavicle -9.74045e-015 -1.78906e-014
lhumerus 53.3571 34.9832 27.4529
lradius 35.8082
lwrist -2.45071
lhand -34.3376 -46.9044
lfingers 7.12502
lthumb -7.50548 -17.0575
rfemur 30.4549 3.49229 20.3773
rtibia -12.8996
rfoot -16.5126 -12.0503
rtoes 3.56533
lfemur 36.6924 -7.79397 -16.3574
ltibia -24.5837
lfoot -7.36835 22.7258
ltoes -8.94008
716
root -0.9838 17.5753 7.22586 -8.77402 -4.51365 -4.19232
lowerback 2.33299 1.17859 -1.96519
upperback -4.42485 1.54334 1.38407
thorax -5.99251 0.889382 2.42481
lowerneck -36.3078 -4.17666 -4.95259
upperneck 27.8365 -4.46051 3.31158
head 16.1277 -1.8532 1.20717
rclavicle -2.45499e-014 -1.31198e-014
rhumerus 29.4537 -37.7752 5.72369
rradius 40.886
rwrist -5.08264
rhand -47.7726 -45.0144
rfingers 7.12502
rthumb -20.4499 -73.9575
lclavicle -2.45499e-014 -1.31198e-014
lhumerus 52.6943 34.4787 26.6896
lradius 36.0398
lwrist -1.94209
lhand -34.4669 -46.7582
lfingers 7.12502
lthumb -7.63026 -16.9158
rfemur 30.5867 3.46592 20.4284
rtibia -12.9363
rfoot -16.3565 -12.0955
rtoes 3.27209
lfemur 36.8019 -7.68763 -16.263
ltibia -24.5957
lfoot -7.25536 22.6094
ltoes -9.30411
717
root -0.988461 17.5753 7.20587 -8.95508 -4.59018 -4.33758
lowerback 2.55824 1.20297 -1.74179
upperback -4.34432 1.58584 1.40041
thorax -6.03268 0.900052 2.30947
lowerneck -36.5385 -4.15999 -4.82098
upperneck 27.6828 -4.46679 3.24764
head 16.0935 -1.84833 1.15361
rclavicle -1.37161e-014 -2.18663e-014
rhumerus 29.5483 -37.8648 5.40022
rradius 40.8139
rwrist -4.82076
rhand -47.804 -45.0098
rfingers 7.12502
rthumb -20.4801 -73.9497
lclavicle -1.37161e-014 -2.18663e-014
lhumerus 51.9857 34.2826 25.7729
lradius 36.2278
lwrist -1.16076
lhand -34.6056 -46.4943
lfingers 7.12502
lthumb -7.76415 -16.6568
rfemur 30.7205 3.52005 20.6516
rtibia -12.9571
rfoot -16.2722 -12.1819
rtoes 3.337
lfemur 36.9691 -7.62922 -16.0651
ltibia -24.6288
lfoot -7.0962 22.5865
ltoes -9.77634
718
root -0.99323 17.5767 7.18537 -9.07919 -4.7359 -4.48936
lowerback 2.75389 1.24525 -1.48266
upperback -4.2506 1.65523 1.41235
thorax -6.04179 0.921917 2.16776
lowerneck -36.7875 -4.15872 -4.73873
upperneck 27.5469 -4.47372 3.20138
head 16.0734 -1.84635 1.11578
rclavicle 6.16232e-015 1.19271e-015
rhumerus 29.5479 -37.8783 5.28238
rradius 40.7395
rwrist -4.73763
rhand -47.9151 -45.2134
rfingers 7.12502
rthumb -20.5868 -74.1417
lclavicle 6.16232e-015 1.19271e-015
lhumerus 50.8954 34.0021 24.1488
lradius 36.5193
lwrist 0.204146
lhand -34.5372 -46.0429
lfingers 7.12502
lthumb -7.69808 -16.203
rfemur 30.7552 3.59356 20.8694
rtibia -12.9282
rfoot -16.1988 -12.216
rtoes 3.3224
lfemur 37.095 -7.56855 -15.8698
ltibia -24.6728
lfoot -7.00495 22.645
ltoes -10.0281
719
root -1.0002 17.5786 7.16391 -9.14979 -4.87589 -4.59072
lowerback 2.95055 1.28616 -1.31703
upperback -4.17118 1.71837 1.42547
thorax -6.06906 0.945371 2.07992
lowerneck -37.0317 -4.16719 -4.72834
upperneck 27.4533 -4.47832 3.21593
head 16.0765 -1.84158 1.11722
rclavicle -1.65985e-014 7.55382e-015
rhumerus 29.4434 -37.8501 5.32348
rradius 40.7333
rwrist -4.72794
rhand -47.9559 -45.4783
rfingers 7.12502
rthumb -20.626 -74.4024
lclavicle -1.65985e-014 7.55382e-015
lhumerus 50.3228 33.9316 23.3254
lradius 36.6629
lwrist 0.9446
lhand -34.485 -45.8541
lfingers 7.12502
lthumb -7.64775 -16.0124
rfemur 30.6932 3.60436 21.001
rtibia -12.8308
rfoot -16.1088 -12.1411
rtoes 3.32652
lfemur 37.1412 -7.42051 -15.682
ltibia -24.7152
lfoot -6.95396 22.6497
ltoes -10.2255
720
root -1.00838 17.5821 7.14307 -9.18541 -4.90824 -4.63637
lowerback 3.14534 1.29458 -1.25371
upperback -4.12524 1.73222 1.42882
thorax -6.13123 0.949416 2.0431
lowerneck -37.1962 -4.19798 -4.81917
upperneck 27.4512 -4.51572 3.36432
head 16.1172 -1.84034 1.18728
rclavicle 3.38928e-014 7.15625e-015
rhumerus 29.5034 -37.8806 5.20002
rradius 40.7161
rwrist -4.54898
rhand -47.7845 -45.2859
rfingers 7.12502
rthumb -20.4613 -74.2278
lclavicle 3.38928e-014 7.15625e-015
lhumerus 50.2616 34.0262 23.3882
lradius 36.7085
lwrist 1.02034
lhand -34.0476 -46.1
lfingers 7.12502
lthumb -7.22553 -16.2433
rfemur 30.5883 3.52628 21.0503
rtibia -12.7064
rfoot -16.0668 -12.043
rtoes 3.49479
lfemur 37.1085 -7.33515 -15.5435
ltibia -24.7388
lfoot -6.92905 22.5905
ltoes -10.2554
721
root -1.01586 17.587 7.12579 -9.16016 -4.8362 -4.6716
lowerback 3.02595 1.2526 -1.30329
upperback -3.95081 1.67583 1.48792
thorax -5.87923 0.921973 2.14111
lowerneck -37.3302 -4.19549 -4.85702
upperneck 27.414 -4.49438 3.40332
head 16.1267 -1.82768 1.21471
rclavicle 2.32578e-014 1.19271e-015
rhumerus 29.7509 -38.0923 4.98588
rradius 40.6557
rwrist -4.29428
rhand -47.3769 -44.3316
rfingers 7.12502
rthumb -20.0696 -73.3151
lclavicle 2.32578e-014 1.19271e-015
lhumerus 50.358 34.3014 23.7072
lradius 36.7356
lwrist 0.865371
lhand -32.8282 -46.5718
lfingers 7.12502
lthumb -6.04839 -16.6782
rfemur 30.446 3.3454 21.0502
rtibia -12.5998
rfoot -16.0519 -11.8967
rtoes 3.76231
lfemur 37.0053 -7.45374 -15.4789
ltibia -24.7305
lfoot -6.9828 22.609
ltoes -10.0639
722
root -1.02344 17.5901 7.11047 -9.10268 -4.73225 -4.67333
lowerback 2.41925 1.16324 -1.58232
upperback -3.68641 1.55341 1.68325
thorax -5.26202 0.869949 2.52396
lowerneck -36.6641 -4.08088 -4.88561
upperneck 26.9531 -4.28139 3.26643
head 15.7656 -1.77499 1.21094
rclavicle -3.15074e-014 -2.8625e-014
rhumerus 30.0503 -38.1196 5.02195
rradius 40.6241
rwrist -4.24087
rhand -47.1616 -43.7256
rfingers 7.12502
rthumb -19.8626 -72.7307
lclavicle -3.15074e-014 -2.8625e-014
lhumerus 50.1987 34.5962 23.8812
lradius 36.7677
lwrist 0.643949
lhand -33.1801 -46.5086
lfingers 7.12502
lthumb -6.38807 -16.6249
rfemur 30.2838 3.1395 20.9969
rtibia -12.4954
rfoot -16.0491 -11.6842
rtoes 4.08611
lfemur 36.8749 -7.69246 -15.5054
ltibia -24.6989
lfoot -7.07639 22.7269
ltoes -9.85341
